{"title":"10 Years of Armada TV 1 Million Subscribers Celebration VIDEOMIX","uid":8750462,"size":223326659,"categoryP":"video","categoryS":"music_videos","magnet":"?xt=urn:btih:923cc5ecd5f201a24cb4ed8167eab1ae2e270ea1&amp;dn=10+Years+of+Armada+TV+1+Million+Subscribers+Celebration+VIDEOMIX&amp;tr=udp%3A%2F%2Ftracker.openbittorrent.com%3A80&amp;tr=udp%3A%2F%2Fopen.demonii.com%3A1337&amp;tr=udp%3A%2F%2Ftracker.coppersurfer.tk%3A6969&amp;tr=udp%3A%2F%2Fexodus.desync.com%3A6969","seeders":2,"leechers":0,"uploader":"baby967","files":-1,"time":1375018775,"description":"\n\nArtist.: Various Artist\n\nTitle..: 10 Years of Armada TV (Official Music Video Mega Mix)\n                 1 Million Subscribers Celebration\n\n \n\n              TRACKLIST in this mix:\n             -======================-\n\n\n 01. Armin van Buuren feat. Trevor Guthrie - This Is What It Feels Like\n\n 02. Tim Berg - Seek Bromance\n\n 03. Nadia Ali - Rapture (Avicii remix)\n\n 04. Laserkraft 3D - Nein Mann\n\n 05. Arty, Nadia Ali &amp; BT - Must Be The Love\n\n 06. John O'Callaghan feat. Sarah Howells - Find Yourself\n\n 07. Armin van Buuren vs Sophie Ellis-Bextor - Not Giving Up On Love\n\n 08. Lauren Wolf - No Stress\n\n 09. Mischa Daniels - Take Me Higher\n\n 10. Antillas feat. Fiora - Damaged\n\n 11. Interstate - I Found You\n\n 12. Origene - Sanctuary\n\n 13. Motorcycle - As The Rush Comes\n\n 14. Cerf, Mitiska &amp; Jaren - Beggin You\n\n 15. Armin van Buuren ft. Sharon den Adel - In and Out of Love\n\n 16. Markus Schulz - The New World\n\n 17. Armin van Buuren - Shivers\n\n 18. Dash Berlin - Till The Sky Falls Down\n\n 19. Emma Hewitt - Colours (Armin van Buuren Remix)\n\n 20. Gaia - Tuvan\n\n 21. W&amp;W - Lift Off!\n\n 22. Dash Berlin feat Emma Hewitt - Waiting\n\n 23. Aly &amp; Fila feat. Jwaydan - We Control The Sunlight\n\n=======================================================================================\n\nCelebration 10 Years of Armada TV Music Video Mega Mix.mp4\n\n      Format : MPEG-4\n\n      Format profile : Base Media / Version 2\n\n      Codec ID : mp42\n\n      File size : 213 MiB\n\n      Duration : 12mn 15s\n\n      Overall bit rate mode : Variable\n\n      Overall bit rate : 2 430 Kbps\n\n      Encoded date : UTC 2013-07-23 10:28:30\n\n      Tagged date : UTC 2013-07-23 10:28:30\n=======================================================================================\n      \n   Video #1\n      ID : 1\n      Format : AVC\n      Format/Info : Advanced Video Codec\n      Format profile : &lt;a class=&quot;__cf_email__&quot; href=&quot;/cdn-cgi/l/email-protection&quot; data-cfemail=&quot;e6ae8f818ea6aad5c8d7&quot;&gt;[email&amp;#160;protected]&lt;/a&gt;&lt;script cf-hash='f9e31' type=&quot;text/javascript&quot;&gt;\n/* &lt;![CDATA[ */!function(){try{var t=&quot;currentScript&quot;in document?document.currentScript:function(){for(var t=document.getElementsByTagName(&quot;script&quot;),e=t.length;e--;)if(t[e].getAttribute(&quot;cf-hash&quot;))return t[e]}();if(t&amp;&amp;t.previousSibling){var e,r,n,i,c=t.previousSibling,a=c.getAttribute(&quot;data-cfemail&quot;);if(a){for(e=&quot;&quot;,r=parseInt(a.substr(0,2),16),n=2;a.length-n;n+=2)i=parseInt(a.substr(n,2),16)^r,e+=String.fromCharCode(i);e=document.createTextNode(e),c.parentNode.replaceChild(e,c)}}}catch(u){}}();/* ]]&gt; */&lt;/script&gt;\n      Format settings, CABAC : Yes\n      Format settings, ReFrames : 1 frame\n      Codec ID : avc1\n      Codec ID/Info : Advanced Video Coding\n      Duration : 12mn 15s\n      Bit rate : 2 235 Kbps\n      Maximum bit rate : 6 719 Kbps\n      Width : 1 280 pixels\n      Height : 720 pixels\n      Display aspect ratio : 16:9\n      Frame rate mode : Constant\n      Frame rate : 25.000 fps\n      Color space : YUV\n      Chroma subsampling : 4:2:0\n      Bit depth : 8 bits\n      Scan type : Progressive\n      Bits/(Pixel*Frame) : 0.097\n      Stream size : 196 MiB (92%)\n      Tagged date : UTC 2013-07-23 10:28:55\n   Audio #2\n      ID : 2\n      Format : AAC\n      Format/Info : Advanced Audio Codec\n      Format profile : LC\n      Codec ID : 40\n      Duration : 12mn 15s\n      Bit rate mode : Variable\n      Bit rate : 192 Kbps\n      Maximum bit rate : 202 Kbps\n      Channel(s) : 2 channels\n      Channel positions : Front: L R\n      Sampling rate : 44.1 KHz\n      Compression mode : Lossy\n      Stream size : 16.8 MiB (8%)\n      Title : IsoMedia File Produced by Google, 5-11-2011\n      Encoded date : UTC 2013-07-23 10:28:48\n      Tagged date : UTC 2013-07-23 10:28:55\n\n","torrent":{"xt":"urn:btih:923cc5ecd5f201a24cb4ed8167eab1ae2e270ea1","amp;dn":"10+Years+of+Armada+TV+1+Million+Subscribers+Celebration+VIDEOMIX","amp;tr":["udp%3A%2F%2Ftracker.openbittorrent.com%3A80","udp%3A%2F%2Fopen.demonii.com%3A1337","udp%3A%2F%2Ftracker.coppersurfer.tk%3A6969","udp%3A%2F%2Fexodus.desync.com%3A6969"],"infoHash":"923cc5ecd5f201a24cb4ed8167eab1ae2e270ea1","infoHashBuffer":{"type":"Buffer","data":[146,60,197,236,213,242,1,162,76,180,237,129,103,234,177,174,46,39,14,161]},"announce":[],"urlList":[]}}